<?xml version="1.0" encoding="iso-8859-1"?>
<!-- Generator: Adobe Illustrator 19.0.0, SVG Export Plug-In . SVG Version: 6.00 Build 0)  -->
<svg version="1.1" id="Layer_1" xmlns="http://www.w3.org/2000/svg" xmlns:xlink="http://www.w3.org/1999/xlink" x="0px" y="0px"
	 viewBox="0 0 512.004 512.004" style="enable-background:new 0 0 512.004 512.004;" xml:space="preserve">
<g>
	<g>
		<path d="M433.442,5.578c-1.317-3.535-4.788-5.802-8.556-5.56c-3.766,0.232-6.936,2.9-7.809,6.569
			c-0.158,0.661-16.255,65.06-85.955,83.581c-13.731-11.659-29.986-19.973-47.416-24.242l-21.262-24.231
			c-1.627-1.854-3.975-2.917-6.441-2.917c-2.467,0-4.813,1.064-6.441,2.917L228.3,65.926c-18.88,4.623-36.382,13.981-50.783,27.194
			c-0.058,0.05-0.119,0.094-0.176,0.146c-14.18,13.056-24.764,29.229-31.015,47.2C121.813,127.957,77.29,96.344,88.009,35.397
			c9.895,19.282,28.717,45.382,62.587,61.794c4.258,2.062,9.383,0.284,11.448-3.975c2.063-4.259,0.284-9.384-3.975-11.448
			C107.773,57.397,95.039,7.074,94.92,6.587c-0.873-3.67-4.044-6.337-7.809-6.569c-3.757-0.234-7.239,2.026-8.556,5.562
			C62.698,48.146,67.232,87.047,91.664,118.075c16.196,20.57,37.448,33.089,50.184,39.279c-0.17,0.914-0.334,1.827-0.482,2.745
			h-4.227c-4.732,0-8.569,3.837-8.569,8.569v53.789c0,4.732,3.836,8.569,8.569,8.569h87.23v17.286c0,4.732,3.836,8.569,8.569,8.569
			c4.732,0,8.569-3.836,8.569-8.569v-17.286h28.997v83.238l-14.498,16.523l-14.498-16.523v-40.817c0-4.732-3.837-8.569-8.569-8.569
			c-4.732,0-8.569,3.836-8.569,8.569v44.043c0,2.079,0.756,4.088,2.127,5.652l23.067,26.289c1.627,1.854,3.975,2.917,6.441,2.917
			c2.467,0,4.813-1.064,6.441-2.917l23.067-26.289c1.371-1.564,2.127-3.571,2.127-5.652v-86.464h87.218
			c4.732,0,8.569-3.837,8.569-8.569v-53.789c0-4.732-3.836-8.569-8.569-8.569h-4.227c-0.149-0.917-0.312-1.831-0.481-2.744
			c12.739-6.189,33.993-18.706,50.192-39.28C444.775,87.046,449.305,48.145,433.442,5.578z M241.507,76.862l14.498-16.523
			l14.498,16.523V160.1h-28.997V76.862z M159.984,154.506c4.675-18.642,14.664-35.428,28.886-48.554
			c0.031-0.027,0.064-0.051,0.095-0.079c10.241-9.434,22.33-16.566,35.405-20.975V160.1h-65.601
			C159.126,158.221,159.52,156.351,159.984,154.506z M366.292,213.888h-0.001H145.709v-36.651H308.56
			c4.732,0,8.569-3.837,8.569-8.569c0-4.732-3.837-8.569-8.569-8.569h-20.919V84.898c13.067,4.408,25.152,11.542,35.393,20.975
			c0.029,0.026,0.061,0.049,0.09,0.075c14.224,13.126,24.215,29.914,28.893,48.564c0.464,1.842,0.857,3.71,1.214,5.587h-18.393
			c-4.732,0-8.569,3.837-8.569,8.569c0,4.732,3.836,8.569,8.569,8.569h31.453V213.888z M365.67,140.469
			c-4.648-13.36-11.697-25.718-20.833-36.545c35.182-11.873,56.78-34.198,69.063-51.853c4.086-5.872,7.403-11.568,10.075-16.763
			C434.767,96.328,390.2,127.959,365.67,140.469z"/>
	</g>
</g>
<g>
	<g>
		<path d="M480.395,278.669c-1.173-2.006-3.112-3.449-5.371-3.998c-2.258-0.549-4.642-0.158-6.607,1.085
			c-13.5,8.545-29.459,11.943-45.056,9.821c2.158-4.283,4.214-8.586,6.123-12.874c1.384-3.108,0.799-6.737-1.491-9.253
			l-15.058-16.543c-1.866-2.05-4.61-3.064-7.36-2.737c-2.751,0.331-5.174,1.974-6.501,4.407c-0.048,0.088-4.134,7.53-12.297,19.717
			c-4.854-4.483-8.997-9.614-12.346-15.34c-1.173-2.007-3.112-3.451-5.372-4c-2.256-0.548-4.644-0.158-6.608,1.087
			c-8.863,5.612-16.524,12.741-22.779,21.205c-6.237,8.469-10.787,17.893-13.527,28.011c-0.608,2.243-0.278,4.637,0.913,6.632
			c1.19,1.996,3.142,3.422,5.404,3.951c6.165,1.444,12.021,3.747,17.509,6.837c-27.983,32.871-59.541,62.671-93.965,88.756
			c-34.404-26.066-65.96-55.867-93.961-88.764c5.485-3.086,11.339-5.387,17.503-6.829c2.264-0.529,4.217-1.957,5.407-3.954
			c1.192-1.998,1.52-4.394,0.908-6.638c-2.761-10.149-7.317-19.571-13.544-28.013c-6.252-8.46-13.909-15.591-22.759-21.192
			c-1.964-1.243-4.349-1.635-6.605-1.088c-2.258,0.548-4.196,1.989-5.371,3.994c-3.366,5.741-7.515,10.878-12.36,15.351
			c-8.164-12.188-12.251-19.632-12.297-19.716c-1.325-2.436-3.746-4.08-6.5-4.412c-2.751-0.337-5.498,0.688-7.363,2.739
			l-15.058,16.543c-2.288,2.515-2.875,6.145-1.492,9.252c1.909,4.289,3.964,8.593,6.124,12.877
			c-15.589,2.124-31.552-1.275-45.057-9.823c-1.965-1.243-4.351-1.636-6.607-1.085c-2.259,0.548-4.198,1.991-5.371,3.998
			c-17.071,29.166-15.144,65.581,4.909,92.773c16.14,21.874,41.451,34.295,67.865,34.295c6.411,0,12.887-0.732,19.314-2.237
			c2.261-0.53,4.211-1.956,5.403-3.951c1.19-1.995,1.521-4.387,0.914-6.63c-3.707-13.701-2.915-28.224,2.021-41.348
			c14.84,18.167,31.963,36.11,51.06,53.478c1.642,1.493,3.705,2.229,5.762,2.229c2.33,0,4.651-0.945,6.342-2.804
			c3.184-3.501,2.927-8.921-0.575-12.105c-20.399-18.552-38.442-37.744-53.717-57.117c2.207-2.983,4.667-5.765,7.353-8.345
			c30.406,35.856,64.901,68.171,102.65,96.137c8.315,6.154,16.846,12.138,25.357,17.789c23.511,15.599,48.197,29.522,73.52,41.476
			l-9.095,10.508c-12.41-6.283-43.424-22.775-79.806-48.013c-8.48-5.872-16.783-11.903-24.691-17.932
			c-6.903-5.246-13.71-10.638-20.233-16.024c-3.648-3.013-9.05-2.497-12.062,1.152c-3.014,3.649-2.497,9.05,1.152,12.063
			c3.646,3.01,7.383,6.02,11.167,9.006c-22.94,14.533-46.92,27.427-71.437,38.4c-2.475,1.107-4.279,3.32-4.865,5.966
			c-0.587,2.646,0.113,5.414,1.886,7.464l20.897,24.141c1.667,1.927,4.051,2.961,6.481,2.961c1.229,0,2.471-0.265,3.639-0.812
			c1.548-0.727,37.248-17.607,83.189-48.942c45.941,31.335,81.641,48.216,83.189,48.942c1.167,0.547,2.408,0.812,3.639,0.812
			c2.43,0,4.814-1.035,6.481-2.961l20.896-24.141c1.774-2.05,2.475-4.817,1.887-7.464c-0.587-2.646-2.391-4.858-4.865-5.966
			c-24.521-10.975-48.504-23.871-71.445-38.405c32.968-26.01,61.201-53.346,84.185-81.498c4.937,13.132,5.729,27.656,2.017,41.349
			c-0.608,2.243-0.279,4.636,0.912,6.632c1.19,1.996,3.141,3.422,5.403,3.952c6.428,1.506,12.901,2.237,19.314,2.237
			c26.413,0,51.727-12.422,67.864-34.294C495.544,344.26,497.471,307.844,480.395,278.669z M103.955,266.995
			c1.951,3.126,4.391,6.914,7.31,11.258c-1.869,1.004-3.785,1.907-5.735,2.725c-1.755-3.381-3.445-6.777-5.04-10.175
			L103.955,266.995z M144.881,307.369c-0.267,0.193-0.537,0.4-0.805,0.608c-8.477,6.39-15.562,14.183-21.055,23.16
			c-0.029,0.047-0.054,0.095-0.082,0.142c-0.026,0.045-0.054,0.089-0.079,0.135c-10.36,16.997-14.33,37.242-11.331,56.804
			c-23.553,2.509-46.912-7.552-61.223-26.948c-14.307-19.4-17.038-44.691-7.691-66.457c18.999,9.259,40.867,11.099,61.293,4.94
			c8.716-2.611,16.943-6.639,24.489-12c0.412-0.291,0.825-0.584,1.253-0.898c6.728-4.965,12.599-10.801,17.535-17.417
			c4.242,3.495,8.043,7.503,11.348,11.977c3.295,4.465,6.004,9.279,8.096,14.381C158.864,298.551,151.57,302.432,144.881,307.369z
			 M171.319,492.816l-9.094-10.506c23.505-11.095,46.446-23.907,68.423-38.161c3.386,2.533,6.836,5.057,10.328,7.568
			C209.098,473.034,182.569,487.118,171.319,492.816z M408.044,266.995l3.465,3.808c-1.596,3.398-3.286,6.796-5.041,10.176
			c-1.949-0.817-3.865-1.721-5.734-2.725C403.654,273.91,406.092,270.121,408.044,266.995z M280.663,423.135
			c-3.432-2.332-6.854-4.715-10.26-7.136c34.141-26.321,65.478-56.217,93.35-89.079c2.684,2.575,5.141,5.353,7.346,8.329
			C347.154,365.633,316.773,395.154,280.663,423.135z M461.695,361.267c-14.311,19.396-37.67,29.463-61.222,26.95
			c3.02-19.66-1.002-40.025-11.483-57.079c-5.497-8.982-12.599-16.786-21.111-23.19l-0.129-0.106l-0.563-0.422
			c-6.738-4.973-14.045-8.864-21.811-11.624c2.086-5.089,4.793-9.902,8.088-14.377c3.306-4.474,7.109-8.483,11.359-11.981
			c4.924,6.604,10.795,12.441,17.54,17.424c0.404,0.297,0.809,0.584,1.28,0.916c7.507,5.334,15.734,9.363,24.439,11.97
			c20.444,6.159,42.311,4.319,61.306-4.937C478.735,316.582,476.006,341.874,461.695,361.267z"/>
	</g>
</g>
<g>
</g>
<g>
</g>
<g>
</g>
<g>
</g>
<g>
</g>
<g>
</g>
<g>
</g>
<g>
</g>
<g>
</g>
<g>
</g>
<g>
</g>
<g>
</g>
<g>
</g>
<g>
</g>
<g>
</g>
</svg>
